PathFileType	4	(X/Y/Z)	C:\Users\u0145647\OneDrive - KU Leuven\KU Leuven\c3d2osim\CP4\T0\Data\Processed\ViconC3D_CP4_2\CP4_T0_cmj_T2_gapFilled.trc
DataRate	CameraRate	NumFrames	NumMarkers	Units	OrigDataRate	OrigDataStartFrame	OrigNumFrames
100.000000	100.000000	4	47	mm	100.000000	160	638
Frame#	Time	C7			T10			CLAV			STRN			LSHO			RSHO			RBAK			LASI			RASI			LPSI			RPSI			LLAT			RLAT			LF1			LF2			LF3			LTHI			LKNE			LMEK			RF1			RF2			RF3			RTHI			RKNE			RMEK			LT1			LT2			LT3			LTIB			LANK			LMM			RT1			RT2			RT3			RTIB			RANK			RMM			LHEE			LSTL			LLCA			LTOE			LCM5			RHEE			RSTL			RLCA			RTOE			RCM5
		X1	Y1	Z1	X2	Y2	Z2	X3	Y3	Z3	X4	Y4	Z4	X5	Y5	Z5	X6	Y6	Z6	X7	Y7	Z7	X8	Y8	Z8	X9	Y9	Z9	X10	Y10	Z10	X11	Y11	Z11	X12	Y12	Z12	X13	Y13	Z13	X14	Y14	Z14	X15	Y15	Z15	X16	Y16	Z16	X17	Y17	Z17	X18	Y18	Z18	X19	Y19	Z19	X20	Y20	Z20	X21	Y21	Z21	X22	Y22	Z22	X23	Y23	Z23	X24	Y24	Z24	X25	Y25	Z25	X26	Y26	Z26	X27	Y27	Z27	X28	Y28	Z28	X29	Y29	Z29	X30	Y30	Z30	X31	Y31	Z31	X32	Y32	Z32	X33	Y33	Z33	X34	Y34	Z34	X35	Y35	Z35	X36	Y36	Z36	X37	Y37	Z37	X38	Y38	Z38	X39	Y39	Z39	X40	Y40	Z40	X41	Y41	Z41	X42	Y42	Z42	X43	Y43	Z43	X44	Y44	Z44	X45	Y45	Z45	X46	Y46	Z46	X47	Y47	Z47

160	1.59	-91.248	1121.4	-68.411	-69.937	984.3	-249.09	-91.737	993.37	-6.193	NaN	NaN	NaN	114.02	1048	-15.078	-270.13	1057.5	-33.556	-225.28	1091.2	-126.14	-28.126	710.72	-277.42	-210.01	733.61	-340.24	-25.889	815.68	-428.66	-90.794	830.33	-455.74	45.767	765.59	-283.76	-228.75	825.14	-358.41	102.58	585.63	-198.21	103.2	607.76	-239.24	109.71	561.59	-222.28	166.04	526.45	-165.97	113.09	430.8	-72.052	NaN	NaN	NaN	-304.26	564.68	-313.49	-298.85	599.78	-314.7	-288.12	565.3	-366.18	-356.49	517.81	-282.39	-323.44	437.5	-181	NaN	NaN	NaN	159.18	306.18	-181.53	141.26	314.29	-124.34	150.42	345.57	-165.83	190.8	222.29	-167.67	171.69	117.79	-323.07	84.336	107.88	-307.18	-350.77	305.57	-244.16	-339.47	335.65	-203.65	-336.62	355.65	-253.25	-401.04	242.88	-262.82	-357.05	80.651	-340.93	-276.45	71.314	-303.39	126.11	114.13	-376.34	93.388	81.481	-322.22	171.39	91.017	-330.53	143.19	46.369	-214.86	189.11	38.952	-232.12	-304.46	72.51	-378.15	-286.33	38.266	-314.53	-360.2	55.589	-339.35	-372.82	45.674	-216.2	-417.15	37.181	-256.5
161	1.6	-89.545	1137.3	-69.089	-68.425	996.44	-247.64	-90.822	1010.9	-4.3951	NaN	NaN	NaN	115.62	1065.4	-15.272	-269.27	1074.8	-34.478	-223.08	1107.1	-127.46	-27.995	721.7	-270.56	-209.01	743.84	-335.91	-24.192	824.8	-423.24	-88.865	839.17	-450.68	46.45	776.11	-277.71	-227.77	836.04	-354.91	102.21	590.33	-192.82	100	612.27	-233.02	109.46	566.77	-217.14	165.54	530.12	-161.34	111.98	432.03	-70.445	NaN	NaN	NaN	-301.99	569.58	-311.96	-296.76	604.75	-312.23	-285.57	571.62	-364.56	-353.89	521.77	-282.17	-319.88	438.03	-182.51	NaN	NaN	NaN	158.84	307	-180.23	140.58	315.3	-123.21	150.16	346.6	-164.51	190.42	223.5	-166.14	172.35	119.05	-321.84	84.747	108.9	-306.48	-349.07	306.53	-245.41	-337.76	336.87	-205.06	-334.69	356.5	-254.71	-399.78	244.18	-263.71	-357.2	81.101	-340.76	-276.56	71.649	-303.78	126.77	115.82	-375.41	94.048	82.522	-321.64	171.9	92.211	-329.57	143.39	46.776	-214.67	188.95	39.269	-231.54	-304.6	72.582	-378.28	-286.67	38.319	-314.62	-360.67	56.012	-338.96	-372.84	45.822	-215.96	-417.28	37.546	-256.14
162	1.61	-87.94	1155.1	-70.929	-66.671	1009.5	-246.3	-89.863	1029.6	-3.1001	NaN	NaN	NaN	117.55	1084.8	-15.085	-268.45	1093.3	-35.631	-220.68	1124.3	-128.98	-28.028	733.49	-263.91	-208.26	755.07	-331.49	-22.467	834.84	-417.57	-86.878	848.94	-445.57	47.018	787.56	-271.34	-226.7	847.97	-351.34	101.82	595.35	-187.54	99.804	618.45	-227.27	109.03	572.56	-212.35	164.53	534.15	-157.67	110.82	433.7	-69.451	NaN	NaN	NaN	-299.39	574.77	-310.8	-294.38	609.87	-310.19	-282.71	578.39	-363.19	-350.68	525.73	-282.52	-316.55	439.33	-184.64	NaN	NaN	NaN	158.58	308.28	-179.21	139.19	316.34	-122.35	149.84	347.83	-163.49	190.07	224.68	-164.91	173.04	120.13	-320.67	85.213	109.91	-305.83	-347.22	307.82	-247.09	-335.43	338.24	-206.99	-332.55	357.85	-256.67	-398.49	245.65	-264.81	-357.94	81.711	-340.63	-276.94	71.804	-304.28	127.56	117.3	-374.38	94.673	83.653	-321	172.53	93.4	-328.41	143.3	46.91	-214.32	188.94	39.597	-230.69	-305.6	72.801	-378.61	-287.34	38.394	-315	-361.42	56.489	-338.7	-372.88	45.932	-215.7	-417.58	37.998	-255.55
163	1.62	-86.077	1173.6	-71.756	-64.797	1023.7	-244.98	-88.543	1049.4	-2.4768	NaN	NaN	NaN	119.21	1105.1	-14.833	-267.42	1113.3	-37.015	-218.17	1142.6	-130.66	-28.093	746.3	-257.07	-207.43	767.22	-326.83	-20.562	845.55	-411.87	-84.722	859.68	-440.46	47.676	799.75	-265.3	-225.28	860.62	-347.54	101.13	600.8	-182.34	99.408	624.78	-221.34	108.6	579.1	-207.66	163.48	538.79	-153.72	109.83	435.67	-68.852	NaN	NaN	NaN	-296.38	580.21	-309.92	-291.61	615.37	-308.32	-279.28	585.55	-362.11	-347.06	530.03	-283.06	-312.59	440.87	-187.36	NaN	NaN	NaN	158.35	309.71	-178.47	138.57	318.16	-121.96	149.48	349.24	-162.71	189.91	226.52	-163.83	173.78	121.35	-319.49	85.86	110.98	-305.2	-345.05	309.18	-249.03	-332.54	339.82	-209.3	-329.97	359.06	-259.13	-397.01	247.36	-265.88	-359.05	82.434	-340.44	-277.73	72.05	-305.13	128.57	118.7	-373.5	95.467	84.776	-320.39	173.28	94.471	-327.32	143.42	47.045	-213.94	189.42	40.168	-230.38	-307.34	73.15	-379.15	-288.51	38.582	-315.66	-362.8	57.19	-338.4	-373	46.109	-215.43	-418.22	38.781	-254.74
